<?xml version="1.0" encoding="UTF-8" ?>
<!DOCTYPE svg PUBLIC "-//W3C//DTD SVG 1.1//EN" "http://www.w3.org/Graphics/SVG/1.1/DTD/svg11.dtd">
<svg width="960pt" height="540pt" viewBox="0 0 960 540" version="1.1" xmlns="http://www.w3.org/2000/svg">
<g id="#000000ff">
<path fill="#000000" stroke="#000000" stroke-width="0.09375" opacity="1.00" d=" M 390.13 240.89 C 395.67 240.86 401.21 240.86 406.75 240.89 C 406.72 247.25 406.81 253.62 406.69 259.98 C 410.71 255.64 417.33 256.15 422.53 257.65 C 426.85 259.04 429.18 263.64 429.09 267.98 C 429.17 279.98 429.12 291.98 429.10 303.99 C 423.58 304.04 418.07 303.92 412.55 304.07 C 412.42 293.35 412.55 282.63 412.49 271.91 C 413.63 267.89 405.76 268.00 406.77 271.98 C 406.70 282.64 406.79 293.31 406.74 303.97 C 401.20 304.02 395.67 304.01 390.14 303.98 C 390.10 282.95 390.13 261.92 390.13 240.89 Z" />
<path fill="#000000" stroke="#000000" stroke-width="0.09375" opacity="1.00" d=" M 681.88 240.88 C 687.38 240.83 692.88 240.96 698.38 240.80 C 698.68 261.84 698.38 282.89 698.54 303.93 C 692.98 304.06 687.43 303.98 681.89 304.00 C 681.86 282.96 681.87 261.92 681.88 240.88 Z" />
<path fill="#000000" stroke="#000000" stroke-width="0.09375" opacity="1.00" d=" M 705.13 240.89 C 710.83 240.86 716.54 240.87 722.24 240.88 C 722.25 244.84 722.26 248.79 722.23 252.75 C 716.53 252.74 710.84 252.77 705.15 252.73 C 705.11 248.78 705.11 244.84 705.13 240.89 Z" />
<path fill="#000000" stroke="#000000" stroke-width="0.09375" opacity="1.00" d=" M 202.50 243.40 C 208.17 243.36 213.83 243.36 219.50 243.40 C 219.51 259.60 219.48 275.80 219.52 292.01 C 219.64 295.54 218.51 299.36 215.50 301.47 C 211.30 304.48 205.87 303.98 200.98 304.01 C 195.87 303.85 190.39 304.71 185.67 302.24 C 182.47 300.65 180.62 297.16 180.46 293.67 C 180.23 288.87 180.44 284.07 180.39 279.27 C 186.05 279.19 191.72 279.35 197.37 279.16 C 197.56 283.07 197.56 287.00 197.43 290.92 C 198.94 291.76 200.66 291.58 202.30 291.37 C 202.76 275.39 202.37 259.39 202.50 243.40 Z" />
<path fill="#000000" stroke="#000000" stroke-width="0.09375" opacity="1.00" d=" M 549.95 244.95 C 555.27 242.46 561.29 243.65 566.95 243.37 C 572.54 243.35 579.36 242.74 583.38 247.47 C 587.40 252.95 585.14 260.16 585.79 266.43 C 580.07 266.56 574.36 266.49 568.64 266.48 C 568.51 262.78 568.89 259.06 568.42 255.38 C 566.38 254.39 563.93 255.05 561.74 254.89 C 561.27 267.36 561.50 279.87 561.62 292.35 C 563.80 292.12 566.78 293.37 568.48 291.72 C 568.81 288.24 568.54 284.74 568.66 281.25 C 574.35 281.26 580.04 281.23 585.73 281.27 C 585.31 287.16 587.03 293.61 584.02 299.03 C 580.80 303.97 574.22 304.15 568.94 304.02 C 563.03 303.68 556.89 304.84 551.17 302.94 C 546.99 301.63 544.30 297.35 544.40 293.05 C 544.33 280.36 544.40 267.67 544.37 254.98 C 544.19 250.94 546.14 246.68 549.95 244.95 Z" />
<path fill="#000000" stroke="#000000" stroke-width="0.09375" opacity="1.00" d=" M 363.52 247.52 C 369.05 247.48 374.58 247.49 380.11 247.52 C 380.10 250.55 380.14 253.58 380.13 256.61 C 382.08 256.62 384.04 256.65 385.99 256.65 C 386.00 260.80 386.01 264.95 385.98 269.10 C 384.03 269.10 382.08 269.12 380.13 269.14 C 380.10 276.45 380.18 283.76 380.09 291.07 C 381.96 291.66 383.92 291.67 385.87 291.69 C 385.87 295.79 385.88 299.89 385.87 303.99 C 380.15 303.76 374.01 304.93 368.71 302.22 C 365.31 300.49 363.49 296.65 363.53 292.94 C 363.44 285.02 363.52 277.09 363.51 269.17 C 361.76 269.14 360.01 269.07 358.27 268.93 C 358.48 264.81 358.28 260.69 358.47 256.57 C 360.14 256.59 361.82 256.61 363.50 256.63 C 363.48 253.59 363.51 250.55 363.52 247.52 Z" />
<path fill="#000000" stroke="#000000" stroke-width="0.09375" opacity="1.00" d=" M 232.45 257.63 C 237.47 256.12 242.79 256.76 247.96 256.61 C 252.54 256.68 257.72 256.44 261.44 259.60 C 264.15 261.87 264.85 265.59 264.77 268.96 C 264.72 276.97 264.79 284.98 264.74 293.00 C 264.76 296.56 263.28 300.36 260.03 302.13 C 255.45 304.72 249.96 303.85 244.94 304.00 C 239.93 303.89 234.44 304.69 229.97 301.88 C 226.63 299.82 225.53 295.66 225.62 291.96 C 225.68 283.67 225.51 275.38 225.69 267.10 C 225.72 262.92 228.35 258.82 232.45 257.63 M 242.05 268.76 C 242.01 276.52 241.89 284.28 242.11 292.05 C 244.14 292.22 246.19 292.24 248.23 292.14 C 248.53 284.34 248.34 276.52 248.33 268.71 C 246.24 268.48 244.13 268.46 242.05 268.76 Z" />
<path fill="#000000" stroke="#000000" stroke-width="0.09375" opacity="1.00" d=" M 271.25 256.66 C 276.71 256.61 282.16 256.57 287.62 256.69 C 287.61 257.60 287.59 259.44 287.57 260.36 C 290.73 256.20 296.40 256.22 301.08 256.99 C 304.03 257.41 306.96 258.93 308.51 261.56 C 310.30 264.37 310.24 267.83 310.27 271.05 C 310.21 282.03 310.30 293.01 310.22 303.99 C 304.69 304.00 299.16 304.00 293.64 304.00 C 293.55 293.03 293.73 282.05 293.56 271.08 C 293.94 268.17 287.89 268.24 287.97 270.98 C 287.72 281.97 287.97 292.98 287.86 303.98 C 282.33 304.01 276.80 304.01 271.27 303.98 C 271.23 288.21 271.26 272.43 271.25 256.66 Z" />
<path fill="#000000" stroke="#000000" stroke-width="0.09375" opacity="1.00" d=" M 315.81 267.06 C 315.84 262.70 318.77 258.46 323.09 257.40 C 328.24 256.17 335.09 255.67 338.47 260.66 C 338.42 259.32 338.39 257.98 338.37 256.65 C 343.85 256.67 349.33 256.46 354.81 256.78 C 354.66 272.51 354.81 288.24 354.74 303.97 C 349.16 304.02 343.59 304.00 338.01 303.98 C 338.02 303.17 338.04 301.55 338.05 300.74 C 334.77 304.54 329.40 304.38 324.86 303.73 C 321.80 303.26 318.76 301.65 317.25 298.85 C 315.52 295.90 315.74 292.34 315.73 289.05 C 315.84 281.72 315.62 274.39 315.81 267.06 M 332.42 271.03 C 332.39 277.58 332.24 284.15 332.49 290.70 C 333.74 292.42 336.19 291.38 337.92 291.16 C 337.97 284.14 338.18 277.10 337.86 270.08 C 336.66 268.52 332.11 268.34 332.42 271.03 Z" />
<path fill="#000000" stroke="#000000" stroke-width="0.09375" opacity="1.00" d=" M 434.64 267.99 C 434.43 263.32 437.32 258.50 442.03 257.38 C 447.18 256.18 454.09 255.68 457.40 260.73 C 457.32 259.37 457.26 258.01 457.22 256.65 C 462.62 256.56 468.03 256.72 473.43 256.53 C 473.87 272.33 473.51 288.16 473.61 303.97 C 468.07 304.02 462.53 304.00 457.00 303.99 C 457.01 303.13 457.04 301.39 457.05 300.52 C 453.56 304.90 447.37 304.42 442.45 303.46 C 438.04 302.52 434.80 298.41 434.72 293.94 C 434.50 285.29 434.65 276.64 434.64 267.99 M 452.22 269.27 L 451.52 269.59 C 450.97 276.60 451.21 283.72 451.41 290.75 C 452.80 292.41 457.49 292.12 456.93 289.10 C 457.03 283.06 457.14 277.00 456.86 270.97 C 456.84 268.55 453.81 269.02 452.22 269.27 Z" />
<path fill="#000000" stroke="#000000" stroke-width="0.09375" opacity="1.00" d=" M 480.63 304.11 C 480.41 288.27 480.40 272.42 480.63 256.58 C 486.05 256.69 491.47 256.54 496.89 256.70 C 496.87 257.62 496.83 259.46 496.81 260.38 C 500.52 255.66 507.28 256.15 512.49 257.50 C 517.04 258.77 519.60 263.51 519.48 268.03 C 519.53 280.01 519.51 292.00 519.47 303.99 C 513.95 304.00 508.42 304.01 502.90 303.98 C 502.85 293.64 502.86 283.30 502.90 272.96 C 502.66 271.77 503.34 269.73 501.81 269.22 C 500.45 269.09 498.81 268.80 497.64 269.65 C 496.96 270.97 497.17 272.52 497.09 273.95 C 497.15 283.96 497.14 293.97 497.10 303.98 C 491.61 304.06 486.12 303.88 480.63 304.11 Z" />
<path fill="#000000" stroke="#000000" stroke-width="0.09375" opacity="1.00" d=" M 599.17 257.20 C 604.05 256.29 609.04 256.71 613.98 256.62 C 618.45 256.68 623.59 256.64 627.03 259.97 C 629.71 262.55 630.01 266.49 630.01 270.00 C 629.97 277.34 630.04 284.69 629.98 292.04 C 630.02 295.65 628.98 299.68 625.78 301.76 C 621.10 304.82 615.27 303.84 609.99 304.00 C 604.60 303.91 598.36 304.81 593.96 300.96 C 590.36 297.68 590.75 292.40 590.73 287.97 C 590.91 280.64 590.44 273.28 590.98 265.97 C 591.27 261.55 594.85 257.90 599.17 257.20 M 607.37 269.17 C 606.77 275.41 607.32 281.71 607.10 287.97 C 607.28 289.46 606.52 292.41 608.95 292.24 C 610.70 292.34 614.05 292.79 613.59 290.02 C 613.46 282.84 614.08 275.60 613.22 268.47 C 611.33 268.79 608.89 267.83 607.37 269.17 Z" />
<path fill="#000000" stroke="#000000" stroke-width="0.09375" opacity="1.00" d=" M 636.39 303.97 C 636.48 288.16 636.15 272.35 636.55 256.55 C 641.95 256.70 647.36 256.57 652.77 256.65 C 652.73 257.98 652.69 259.31 652.64 260.64 C 654.17 258.64 656.34 257.00 658.94 256.81 C 663.25 256.41 668.13 256.50 671.70 259.29 C 674.61 261.58 675.45 265.48 675.39 269.01 C 675.35 280.67 675.42 292.33 675.34 303.99 C 669.82 304.00 664.30 304.00 658.78 303.99 C 658.66 293.01 658.85 282.03 658.70 271.05 C 659.10 268.20 653.13 268.22 653.13 270.95 C 652.80 281.95 653.11 292.98 652.99 303.99 C 647.46 304.00 641.92 304.03 636.39 303.97 Z" />
<path fill="#000000" stroke="#000000" stroke-width="0.09375" opacity="1.00" d=" M 705.36 303.94 C 705.50 288.15 705.15 272.35 705.53 256.57 C 711.02 256.69 716.50 256.57 721.99 256.66 C 722.00 272.43 722.02 288.20 721.98 303.98 C 716.44 303.99 710.90 304.06 705.36 303.94 Z" />
<path fill="#000000" stroke="#000000" stroke-width="0.09375" opacity="1.00" d=" M 728.89 256.66 C 734.34 256.59 739.79 256.62 745.25 256.63 C 745.23 257.62 745.19 259.60 745.17 260.58 C 748.99 255.41 756.46 256.05 761.88 257.88 C 765.86 259.44 767.99 263.81 767.87 267.93 C 767.89 279.95 767.87 291.97 767.87 303.99 C 762.33 304.00 756.79 304.02 751.26 303.97 C 751.20 292.95 751.32 281.94 751.22 270.93 C 751.39 268.30 746.96 268.60 745.80 270.06 C 745.37 281.34 745.75 292.66 745.62 303.96 C 740.04 304.03 734.47 304.00 728.90 303.98 C 728.86 288.21 728.86 272.44 728.89 256.66 Z" />
</g>
</svg>
